<svg width="15" height="29" viewBox="0 0 15 29" fill="none" xmlns="http://www.w3.org/2000/svg">
<path d="M7.28524 11.9725C7.28524 11.9725 7.26952 11.9725 7.26253 11.9725C5.88973 11.969 4.57107 12.1527 3.34498 12.5184C3.40786 13.0083 3.462 13.5332 3.51614 14.1683C3.51614 14.1683 3.51614 14.1683 3.51614 14.1718C3.56155 15.2373 3.58077 16.8068 3.57553 18.9623C3.586 19.5467 3.57378 20.1679 3.53885 20.8607C3.53885 20.9237 3.4882 21.2964 3.42532 21.795C3.4096 22.1572 3.39388 22.5159 3.37816 22.6261C3.40436 23.8911 4.84877 24.647 7.23982 24.647L7.28174 24.647C9.65708 24.6417 11.091 23.8876 11.1172 22.6261C11.1032 22.5159 11.0858 22.1572 11.07 21.795C11.0072 21.2964 10.9548 20.9237 10.9565 20.8607C10.9216 20.1679 10.9094 19.5467 10.9198 18.9623C10.9146 16.8068 10.9338 15.2373 10.9792 14.1718C10.9792 14.1718 10.9792 14.1718 10.9792 14.1683C11.0334 13.5332 11.0875 13.0083 11.1504 12.5184C9.93827 12.1562 8.63533 11.9725 7.27825 11.9725L7.28524 11.9725ZM7.28524 12.6811C5.99802 12.6916 4.82432 12.8053 3.91785 12.989C4.33179 12.6338 5.6749 12.3731 7.28524 12.3574C8.86588 12.3801 10.1758 12.6391 10.5845 12.989C9.6955 12.8088 8.54626 12.6968 7.28524 12.6811Z" fill="#39B54A"/>
<path d="M7.28518 24.7712L7.25898 24.7712L7.24151 24.7712C5.06354 24.7712 3.64708 24.1466 3.32571 23.0776C3.27681 23.5045 3.22616 24.0084 3.19821 24.479C3.20345 24.8377 3.24362 25.0932 3.34318 25.1422C4.65135 25.7335 5.58053 25.7493 7.01271 25.7458C7.10353 25.7458 7.19261 25.7458 7.28343 25.7458C7.35155 25.7458 7.41792 25.7458 7.48603 25.7458C8.91822 25.7493 9.84739 25.7335 11.1556 25.1422C11.2551 25.0914 11.2953 24.8377 11.3005 24.479C11.2726 24.0084 11.2237 23.5045 11.173 23.0776C10.8517 24.1431 9.44568 24.766 7.28343 24.7695L7.28518 24.7712Z" fill="#364258"/>
<path d="M7.2853 24.647L7.2591 24.647L7.24163 24.647C4.85058 24.647 3.40792 23.8912 3.37997 22.6262C3.39394 22.5159 3.41141 22.1573 3.42713 21.7951C3.32408 22.6069 3.18959 23.7582 3.20007 24.479C3.22802 24.0084 3.27692 23.5045 3.32757 23.0776C3.64894 24.1466 5.06541 24.7712 7.24338 24.7712L7.2853 24.7712C9.44929 24.766 10.8553 24.1431 11.1749 23.0776C11.2238 23.5045 11.2745 24.0084 11.3024 24.479C11.3129 23.7582 11.1784 22.6069 11.0753 21.7951C11.0911 22.1573 11.1068 22.5159 11.1225 22.6262C11.0963 23.8877 9.66237 24.64 7.28704 24.647L7.2853 24.647Z" fill="#1A1F29"/>
<path d="M11.4333 15.6887C11.4333 15.6887 11.4333 15.7027 11.435 15.7097C11.6184 15.68 12.1633 15.5155 12.5685 15.393C12.7624 15.3353 12.9353 15.2811 13.0488 15.2496C13.0279 13.129 13.0069 11.0346 12.9947 10.235C12.8235 10.1703 12.6454 10.1056 12.4655 10.0443C12.4602 10.5115 12.462 10.9909 12.4655 11.4563C12.4725 12.6356 12.4777 13.8568 12.3624 15.0134L12.3624 15.0291L12.345 15.0361C12.0847 15.1708 11.7896 15.3213 11.4595 15.4105C11.414 15.491 11.4228 15.5907 11.4333 15.6887Z" fill="#39B54A"/>
<path d="M11.4665 19.8179C11.4665 19.8179 11.4665 19.8214 11.4665 19.8232C11.5818 19.9457 11.6796 20.0821 11.7722 20.2169C11.849 20.3288 11.9294 20.4426 12.0202 20.5493C12.0673 20.5633 12.125 20.5563 12.1791 20.5493C12.1879 20.3813 12.1948 20.2151 12.2036 20.0471C12.2717 18.6912 12.3416 17.2879 12.3101 15.9337C12.2979 15.9337 12.2874 15.9337 12.2734 15.9355C12.0149 16.0159 11.7215 16.0719 11.4298 16.1017L11.4298 18.9659C11.4298 18.9659 11.4298 18.9676 11.4298 18.9694C11.4351 19.0691 11.4333 19.1723 11.4298 19.272C11.4246 19.4558 11.4194 19.6447 11.4683 19.8197L11.4665 19.8179Z" fill="#364258"/>
<path d="M12.8445 21.438C12.9266 21.2875 12.9633 21.1143 13 20.9481C13.0297 20.8134 13.0611 20.6734 13.1152 20.5457C13.1013 20.5334 13.1152 20.411 13.1152 20.3917C13.1117 19.5221 13.0716 17.4576 13.0506 15.3055C12.9388 15.337 12.7729 15.3877 12.5878 15.4437C12.1546 15.5749 11.6237 15.7341 11.4385 15.7639C11.4298 15.8251 11.4298 15.8864 11.4315 15.9528C11.4315 15.9826 11.4315 16.0123 11.4315 16.0421C11.7162 16.0141 12.0027 15.9581 12.2594 15.8794C12.2786 15.8759 12.2943 15.8741 12.3083 15.8741C12.3205 15.8741 12.3328 15.8741 12.345 15.8759L12.3729 15.8759L12.3729 15.9039C12.4061 17.2686 12.3363 18.6823 12.2681 20.0488C12.2594 20.2255 12.2507 20.4005 12.242 20.5754L12.242 20.5999L12.1983 20.6052C12.1319 20.6139 12.0568 20.6227 11.9887 20.5999L11.98 20.5964L11.9747 20.5894C11.8804 20.4792 11.7966 20.3602 11.7162 20.2465C11.6324 20.1275 11.5451 20.005 11.4473 19.8948C11.4298 19.9998 11.4385 20.1153 11.4787 20.2203C11.4787 20.2238 11.4787 20.2255 11.4787 20.229C11.4787 20.229 11.4787 20.2325 11.4787 20.2343C11.7878 20.6489 12.0359 21.0531 12.2175 21.4398C12.2175 21.4398 12.228 21.4398 12.242 21.4433L12.2856 21.4433C12.2856 21.4433 12.2909 21.4345 12.2943 21.431C12.2943 21.431 12.3136 21.4415 12.3415 21.4555C12.3572 21.4573 12.3694 21.459 12.3694 21.4608C12.4061 21.4678 12.4428 21.4783 12.4795 21.4888C12.5808 21.5185 12.6768 21.5465 12.7729 21.5028C12.7869 21.4923 12.7991 21.48 12.8131 21.4678C12.8236 21.459 12.834 21.4485 12.8463 21.4398L12.8445 21.438Z" fill="#39B54A"/>
<path d="M11.4576 15.3457C11.7668 15.26 12.048 15.1182 12.296 14.9905C12.4113 13.841 12.4043 12.6285 12.3973 11.4545C12.3955 10.9821 12.3921 10.4939 12.3973 10.0198C12.3798 10.0145 12.3624 10.0075 12.3449 10.0023C12.2873 10.2192 12.2296 10.4362 12.1702 10.6531C11.8646 11.7834 11.5485 12.9504 11.4786 14.1314C11.4786 14.1314 11.4803 14.1332 11.4803 14.1349C11.4926 14.2819 11.4803 14.4796 11.4646 14.6896C11.4489 14.9275 11.4332 15.1725 11.4559 15.3457L11.4576 15.3457Z" fill="#364258"/>
<path d="M13.1677 20.614C13.1572 20.6245 13.145 20.6437 13.131 20.677C13.1013 20.7697 13.0804 20.8659 13.0594 20.9586C13.0227 21.1301 12.9843 21.3086 12.897 21.4678L12.89 21.4765C12.8778 21.487 12.8655 21.4975 12.8551 21.508C12.8411 21.5203 12.8254 21.5343 12.8114 21.5465L12.8062 21.55C12.6856 21.6078 12.5721 21.5745 12.4621 21.5413C12.4254 21.5308 12.3905 21.522 12.3573 21.515C12.3468 21.5203 12.3189 21.5045 12.2996 21.494C12.2909 21.4905 12.2857 21.4888 12.2839 21.4853L12.235 21.4853C11.7338 21.0514 12.1407 24.6522 12.139 24.6504C12.1355 24.6487 11.6499 22.1484 11.4788 20.8414C11.4526 20.6752 11.4333 20.5072 11.4246 20.341C11.4229 20.306 11.4211 20.2728 11.4194 20.243C11.3705 20.1118 11.3635 19.9648 11.3949 19.8389C11.3949 19.8389 11.3949 19.8389 11.3932 19.8371C11.3425 19.6517 11.3478 19.4574 11.353 19.2702C11.3565 19.1722 11.3582 19.069 11.353 18.971C11.353 18.971 11.3513 18.9675 11.3513 18.9658L11.3513 16.0771C11.353 16.0369 11.3513 15.9966 11.3513 15.9564C11.3513 15.8846 11.3478 15.8094 11.3617 15.7377C11.3617 15.7254 11.36 15.7132 11.3582 15.6992C11.3478 15.596 11.3373 15.4805 11.3949 15.3807C11.367 15.2005 11.3844 14.9433 11.4019 14.6914C11.4159 14.4832 11.4281 14.2872 11.4176 14.1455C11.4176 14.1437 11.4194 14.1402 11.4194 14.1385C11.4892 12.9505 11.8054 11.7782 12.1128 10.6444C12.1739 10.4205 12.2333 10.1983 12.2927 9.97606C12.2892 9.96731 12.2874 9.95856 12.2927 9.95157C12.2962 9.94457 12.3014 9.94107 12.3084 9.93582C12.3538 9.70486 12.4132 9.46691 12.4813 9.24995L12.4848 9.23946L12.4953 9.23421C12.5092 9.22721 12.5302 9.21671 12.5529 9.21496L12.5721 9.21496L12.5808 9.22896C12.6507 9.36018 12.8533 9.49141 13.0332 9.49666C13.0367 9.31119 13.0262 9.12398 13.0157 8.94376C13.007 8.79504 12.9983 8.64107 12.9965 8.4871C12.9197 8.5151 12.8446 8.55009 12.7677 8.58858C12.5948 8.67432 12.4149 8.76005 12.2018 8.7548C12.0656 9.24295 11.9486 9.75385 11.8351 10.2508C11.6639 11.0031 11.4857 11.7817 11.236 12.4991C11.236 12.5026 11.2395 12.5043 11.2395 12.5078C11.1749 13.003 11.1207 13.5331 11.0666 14.1752L11.0666 14.177C11.0212 15.2408 11.0002 16.8067 11.0072 18.9588C11.0072 18.9623 11.0107 18.964 11.0107 18.9675C11.0002 19.5572 11.0124 20.1835 11.0491 20.8852C11.0491 20.8904 11.0456 20.8957 11.0421 20.9009C11.0823 21.2193 11.1294 21.5465 11.1766 21.8615C11.2849 22.6033 11.3984 23.3679 11.4264 24.1203C11.4264 24.1203 11.4264 24.1203 11.4264 24.122C11.4264 24.1238 11.4299 24.1255 11.4299 24.1273C11.4351 24.7886 11.3268 25.576 11.222 26.3353C11.1888 26.5785 11.1574 26.8112 11.1294 27.0334L11.1591 27.0282C11.7338 26.9355 12.1372 26.764 12.2979 26.547C12.5529 26.1989 12.6315 26.0816 12.7398 25.9189C12.7695 25.8752 12.8009 25.8262 12.8393 25.7702C12.8603 25.6477 12.8795 25.527 12.897 25.4063C12.9389 25.1316 12.9826 24.8464 13.0454 24.5734C13.0454 24.5664 13.0524 24.5629 13.0559 24.5577C13.0629 24.5209 13.0681 24.4825 13.0734 24.444C13.1066 24.2165 13.1397 23.9016 13.1677 23.5499C13.2323 22.5771 13.2131 21.4328 13.1747 20.6157L13.1677 20.614Z" fill="#39B54A"/>
<path d="M11.3827 27.7875L11.3879 27.7805L11.3443 27.7927L11.3652 27.7892L11.3827 27.7875Z" fill="#39B54A"/>
<path d="M10.8883 27.4167C10.9441 27.3467 11.1572 25.9715 11.1572 25.3224C10.4551 25.7283 8.86573 25.9418 7.28509 25.9418C5.68174 25.9505 4.05743 25.7353 3.34483 25.3224C3.34483 25.9715 3.55966 27.3485 3.6138 27.4167C3.80942 27.6617 4.95167 27.6809 5.9018 27.6617C5.98913 27.6599 6.55851 27.6617 7.28509 27.6564C7.97847 27.6617 8.51642 27.6599 8.60025 27.6617C9.54864 27.6809 10.6909 27.6617 10.8883 27.4167Z" fill="#39B54A"/>
<path d="M10.2159 1.86108C10.2019 1.77885 10.1722 1.70186 10.1391 1.61963C10.1059 1.53915 10.0727 1.45516 10.0587 1.36768L10.0587 1.36243L10.0587 1.35718C10.064 1.34319 10.0692 1.32919 10.0779 1.31169L10.0832 1.30294L10.0936 1.29944C10.1216 1.2907 10.1495 1.2872 10.1757 1.2872C10.2596 1.2872 10.3347 1.32394 10.4098 1.36068C10.4622 1.38693 10.5111 1.41142 10.5635 1.42192C10.4604 1.24345 10.2543 1.19446 10.0709 1.15247L10.0413 1.14548C9.17321 0.979258 8.30167 0.916269 7.31486 0.944264C7.31137 0.944264 7.30787 0.947764 7.30263 0.947764C7.29739 0.947764 7.29215 0.947764 7.28692 0.947764C7.28692 0.947764 7.27294 0.947764 7.26596 0.947764C7.245 0.947764 7.22404 0.947764 7.20308 0.947764C7.19784 0.947764 7.19609 0.946013 7.19085 0.944264C6.2023 0.916269 5.33076 0.981008 4.46446 1.14548L4.43477 1.15247C4.24963 1.19446 4.04529 1.2417 3.94224 1.42192C3.99289 1.40967 4.04354 1.38518 4.09594 1.36068C4.16929 1.32394 4.24614 1.2872 4.32998 1.2872C4.35617 1.2872 4.38412 1.29069 4.41206 1.29944L4.4208 1.30294L4.42604 1.31169C4.43652 1.32919 4.44176 1.34318 4.44525 1.35718L4.44525 1.36243L4.44525 1.36768C4.43128 1.45516 4.39809 1.53915 4.36491 1.61963C4.33172 1.70011 4.30203 1.77885 4.28806 1.86108C5.24867 1.68262 6.24072 1.58989 7.23627 1.58989C7.24674 1.58989 7.25548 1.58989 7.26596 1.58989C7.27294 1.58989 7.27993 1.58989 7.28692 1.58989C8.27722 1.58989 9.26228 1.68262 10.2177 1.86108L10.2159 1.86108Z" fill="#389E0D"/>
<path d="M14.1456 10.5728L14.2434 10.6147C14.2294 10.2508 13.8836 10.0671 13.5168 9.87114C13.3631 9.78891 13.2025 9.70318 13.0715 9.60345L13.0243 9.5667L13.0243 9.54046C12.8304 9.53521 12.6208 9.40398 12.5335 9.26226C12.53 9.26226 12.5283 9.26401 12.5248 9.26576C12.5056 9.32525 12.4899 9.38999 12.4724 9.45123C12.4392 9.5807 12.4095 9.71192 12.3868 9.79941C12.3816 9.8239 12.3763 9.84665 12.3711 9.87114C12.3711 9.92713 13.0732 10.1493 13.0732 10.1493C13.0924 10.1493 13.1081 10.1563 13.1221 10.1651C13.1291 10.1686 13.1396 10.1721 13.1466 10.1756L13.2025 10.1826C13.578 10.3296 13.9185 10.4748 14.1439 10.571L14.1456 10.5728Z" fill="#39B54A"/>
<path d="M11.0245 2.33724C11.1642 2.44047 11.3057 2.5507 11.4402 2.65918C11.407 2.62944 11.3738 2.60144 11.3406 2.5717C11.2376 2.48946 11.1328 2.41073 11.0245 2.33724Z" fill="#39B54A"/>
<path d="M11.393 1.37487C10.1425 0.786983 8.63171 0.734492 7.3113 0.730993L7.2851 0.730993L7.25891 0.730993L7.19079 0.730993C5.87213 0.734492 4.3596 0.786983 3.10906 1.37487C1.91616 2.23395 1.32756 3.13152 1.35376 4.04659C1.46903 3.86287 1.55112 3.65816 1.62972 3.45695C1.68386 3.31873 1.73801 3.17526 1.80438 3.04054L1.80438 3.03529L1.81311 3.03179C1.85153 3.00554 1.89869 3.00204 1.93886 3.00029C2.21657 2.4614 2.76673 2.12722 3.29944 1.80528C3.4968 1.68455 3.68368 1.57083 3.85834 1.44835C3.85834 1.44835 3.85834 1.44835 3.85834 1.44485C3.96313 1.20165 4.21464 1.14566 4.41724 1.09842L4.44868 1.09142C5.19097 0.949699 5.93326 0.879714 6.74891 0.879714C6.91658 0.879714 7.08949 0.883213 7.26415 0.890212C7.27113 0.890212 7.27812 0.890212 7.2851 0.890212C7.44404 0.884963 7.60123 0.881463 7.75319 0.881463C8.56883 0.881463 9.31112 0.949701 10.0534 1.09317L10.0849 1.10017C10.2875 1.14566 10.5407 1.2034 10.6438 1.4466C10.6438 1.4466 10.6438 1.44835 10.6438 1.4501C10.8184 1.57433 11.0053 1.68806 11.2027 1.80703C11.7354 2.12897 12.2855 2.46315 12.5632 3.00205C12.6034 3.0038 12.6506 3.00729 12.689 3.03354L12.6942 3.03704L12.6977 3.04229C12.7641 3.17701 12.82 3.31873 12.8724 3.45871C12.951 3.65992 13.0313 3.86638 13.1483 4.04834C13.1745 3.13327 12.5859 2.2357 11.393 1.37662L11.393 1.37487Z" fill="#135200"/>
<path d="M12.5022 3.15084C12.5075 3.10885 12.5145 3.06686 12.5232 3.02487C12.2542 2.49297 11.7058 2.16054 11.1766 1.84035C10.9862 1.72488 10.7906 1.6059 10.6142 1.48167C10.6072 1.48167 10.602 1.47993 10.5967 1.47643C10.5216 1.46943 10.4518 1.43793 10.3854 1.40469C10.2963 1.36095 10.2125 1.3207 10.1199 1.34345C10.1147 1.3522 10.1129 1.3592 10.1094 1.36795C10.1234 1.44843 10.1548 1.52891 10.1863 1.60415C10.2212 1.69163 10.2579 1.78261 10.2684 1.87884C10.2684 1.87884 10.2701 1.88059 10.2701 1.88234C10.319 1.90159 10.3714 1.92609 10.4238 1.95408C10.7557 2.1133 11.0526 2.32501 11.3373 2.57346C11.3705 2.60145 11.4036 2.6312 11.4368 2.66094C11.9032 3.04062 12.2892 3.40979 12.3084 3.42729C12.3381 3.45703 12.3608 3.47453 12.3887 3.47278C12.3992 3.46228 12.4079 3.45179 12.4201 3.44129C12.4708 3.35555 12.4865 3.25233 12.5005 3.15434L12.5022 3.15084ZM12.2158 3.17184C12.0219 3.04761 11.8612 2.83766 11.6848 2.68719C11.4246 2.46498 11.0491 2.24977 10.864 1.97333C11.1067 1.97158 11.4351 2.24627 11.615 2.37925C11.849 2.55246 12.1093 2.78517 12.249 3.03012L12.2315 3.01437C12.2769 3.07211 12.2769 3.1351 12.2141 3.17184L12.2158 3.17184Z" fill="#D7DEEB"/>
<path d="M13.0924 9.57032C13.0696 9.57032 13.0504 9.55808 13.04 9.54058C13.0365 9.54058 13.0312 9.54058 13.0277 9.54058L13.0277 9.56683L13.0749 9.60357C13.2059 9.7033 13.3648 9.78903 13.5203 9.87127C13.887 10.0655 14.2329 10.2509 14.2468 10.6149L14.149 10.5729C13.9237 10.4766 13.5831 10.3314 13.2076 10.1845L13.1517 10.1775C13.3561 10.2614 13.9237 10.5239 14.1298 10.6114L14.2503 10.6621C14.2503 10.6621 14.2573 10.6621 14.2608 10.6621C14.2748 10.6621 14.2853 10.6586 14.2975 10.6569C14.3115 10.2387 13.922 10.0322 13.5465 9.83277C13.3928 9.75054 13.2356 9.66656 13.1081 9.56857C13.1046 9.56857 13.1011 9.56857 13.0976 9.56857L13.0924 9.57032Z" fill="#1A1F29"/>
<path d="M13.1223 10.1685C13.1101 10.158 13.0926 10.1527 13.0734 10.1527C13.0787 10.1527 13.0961 10.158 13.1223 10.1685Z" fill="#1A1F29"/>
<path d="M13.1396 4.19874L13.1396 4.20924C13.1257 4.6554 13.1414 5.11906 13.1588 5.56697C13.192 6.50478 13.227 7.47584 12.9807 8.37166L12.9667 8.4224L12.9737 8.43115C12.9737 8.43115 12.9877 8.4259 12.9929 8.42415C12.9947 8.40666 13.0069 8.39266 13.0226 8.38216C13.2706 7.48109 13.2374 6.50828 13.2043 5.56522C13.1885 5.11556 13.1711 4.65015 13.1868 4.20224C13.1868 4.19874 13.1868 4.19524 13.1868 4.19174C13.1711 4.17249 13.1588 4.1515 13.1449 4.13225C13.1449 4.15325 13.1449 4.17424 13.1414 4.19524L13.1414 4.20224L13.1396 4.19874Z" fill="#1A1F29"/>
<path d="M13.0261 9.49146C13.0261 9.49146 13.0278 9.49146 13.0296 9.49146C13.0331 9.30599 13.0226 9.11878 13.0104 8.93856C13.0016 8.78984 12.9929 8.63587 12.9912 8.4819C12.9912 8.4819 12.9894 8.4819 12.9877 8.4819C12.9877 8.63587 12.9982 8.78809 13.0069 8.93856C13.0174 9.12053 13.0278 9.30774 13.0244 9.49146L13.0261 9.49146Z" fill="#1A1F29"/>
<path d="M11.9782 7.14675C11.959 7.22199 12.0114 7.29722 12.0952 7.31472C12.179 7.33222 12.2611 7.28498 12.2803 7.20799C12.448 6.54137 12.3974 5.83101 12.3432 5.08041C12.3135 4.68149 11.9747 3.38675 11.9747 3.83466C11.9747 4.28257 12.0044 4.69549 12.0341 5.09966L11.9799 7.14675L11.9782 7.14675Z" fill="#73D13D"/>
<path d="M11.2254 27.1403C11.2114 27.226 11.2114 27.4168 11.1468 27.6057C11.4314 27.6057 11.6899 27.492 11.9135 27.3293C11.9519 27.191 11.9834 27.0528 12.0078 26.9128C11.7668 27.0266 11.4786 27.0966 11.2271 27.1403L11.2254 27.1403Z" fill="#F5222D"/>
<path d="M12.0078 26.9127C11.9834 27.0527 11.9519 27.1909 11.9135 27.3291C12.2698 27.0702 12.5353 26.687 12.668 26.449C12.7064 26.379 12.6768 26.4333 12.7064 26.3685C12.7292 26.2811 12.7501 26.1918 12.7676 26.1008C12.6872 26.2198 12.5947 26.351 12.4043 26.6117C12.3135 26.736 12.172 26.8339 12.0061 26.9109L12.0078 26.9127Z" fill="#FAAD14"/>
<path d="M13.0803 25.7263C13.0751 25.7613 13.0681 25.7963 13.0629 25.8313C13.0716 25.7946 13.0768 25.7613 13.0803 25.7263Z" fill="#1A1F29"/>
<path d="M12.2907 26.5436C12.1301 26.7623 11.7266 26.9338 11.152 27.0248L11.1223 27.03C11.1083 27.1437 11.0943 27.2557 11.0839 27.3642C11.0926 27.3747 11.0961 27.3869 11.0874 27.3992L11.0751 27.4149C11.028 27.5584 11.1275 27.7194 11.0123 27.7246C11.3022 27.7561 11.5694 27.6791 11.8017 27.5549C11.648 27.6616 11.4908 27.7456 11.3441 27.7928L11.3878 27.7824L11.3843 27.7876L11.3651 27.7876L11.3441 27.7928C11.3197 27.7981 11.2969 27.8033 11.2742 27.8086L11.2655 27.7981L10.9284 27.8978C10.1547 27.9731 9.4124 28.0151 8.67186 28.0361C8.2195 28.05 7.76713 28.0553 7.30953 28.057L7.19251 28.057C6.73491 28.0553 6.28255 28.05 5.83019 28.0361C5.09139 28.0151 4.34735 27.9731 3.57362 27.8978L3.23654 27.7981L3.22606 27.8086C3.2051 27.8033 3.18065 27.7981 3.15794 27.7928L3.13698 27.7893L3.11777 27.7893L3.11428 27.7824L3.15794 27.7928C3.01123 27.7474 2.85404 27.6634 2.70034 27.5549C2.93263 27.6791 3.19986 27.7561 3.48979 27.7246C3.37452 27.7211 3.47407 27.5584 3.42691 27.4149L3.41469 27.3992C3.40596 27.3887 3.40945 27.3747 3.41818 27.3642C3.4077 27.2557 3.39373 27.1437 3.37976 27.03L3.35006 27.0248C2.77544 26.932 2.37199 26.7606 2.2113 26.5436C1.9563 26.1954 1.87771 26.0782 1.76942 25.9155C1.73973 25.8717 1.70829 25.8227 1.66987 25.7667C1.68908 25.8787 1.71004 25.989 1.73274 26.1009C1.81308 26.2199 1.90565 26.3511 2.09603 26.6118C2.18685 26.7361 2.32832 26.834 2.49425 26.911C2.73527 27.0248 3.02346 27.0947 3.27496 27.1385C3.28893 27.2242 3.28893 27.4149 3.35356 27.6039C3.06887 27.6039 2.81037 27.4902 2.58681 27.3274C2.23051 27.0685 1.96504 26.6853 1.8323 26.4474C1.79387 26.3774 1.82356 26.4316 1.79387 26.3669C1.82007 26.4649 1.84802 26.5611 1.87945 26.6538C1.87771 26.6486 1.87596 26.6468 1.87945 26.6556L1.78514 26.7291C1.99298 27.2417 2.54664 27.6546 3.05664 27.8121C3.06013 27.8121 3.06363 27.8086 3.06712 27.8086C3.06887 27.8086 3.07061 27.8086 3.07236 27.8086C3.17017 27.8313 3.27671 27.8523 3.38674 27.8733C3.42866 27.8803 3.49503 27.8926 3.55616 27.9031C3.62253 27.9153 3.69065 27.9258 3.76051 27.9363C4.79797 28.0361 5.88783 28.0815 7.26412 28.0815L7.28159 28.0815C8.63343 28.0815 9.70932 28.0361 10.7346 27.9363C10.8044 27.9258 10.8725 27.9153 10.9389 27.9031C11.0018 27.8926 11.0664 27.8803 11.1083 27.8733C11.2184 27.8523 11.3249 27.8313 11.4227 27.8086C11.4244 27.8086 11.4262 27.8086 11.4279 27.8086C11.4314 27.8086 11.4349 27.8121 11.4384 27.8121C11.9484 27.6546 12.5021 27.2417 12.7099 26.7291L12.6156 26.6556C12.6208 26.6451 12.6191 26.6486 12.6156 26.6538C12.6488 26.5593 12.6767 26.4631 12.7012 26.3669C12.6715 26.4316 12.7012 26.3756 12.6628 26.4474C12.5318 26.6853 12.2645 27.0685 11.9082 27.3274C11.6847 27.4902 11.4262 27.6039 11.1415 27.6039C11.2044 27.4149 11.2061 27.2242 11.2201 27.1385C11.4716 27.0947 11.7615 27.0248 12.0008 26.911C12.165 26.8323 12.3082 26.7343 12.399 26.6118C12.5894 26.3511 12.682 26.2182 12.7623 26.1009C12.785 25.9907 12.806 25.8787 12.8252 25.7667C12.7868 25.8227 12.7553 25.87 12.7256 25.9155C12.6174 26.0782 12.5388 26.1954 12.2838 26.5436L12.2907 26.5436Z" fill="#1A1F29"/>
<path d="M12.2524 3.02991C12.1144 2.78496 11.8524 2.55225 11.6184 2.37904C11.4367 2.24606 11.1101 1.97137 10.8673 1.97312C11.0507 2.24956 11.428 2.46477 11.6882 2.68698C11.8629 2.83745 12.0236 3.04741 12.2192 3.17163C12.2821 3.13489 12.2821 3.07015 12.2367 3.01416L12.2541 3.02991L12.2524 3.02991Z" fill="white"/>
<path d="M2.15899 15.0361L2.14327 15.0291L2.14327 15.0134C2.02451 13.8551 2.03149 12.6356 2.03848 11.4563C2.04023 10.9909 2.04372 10.5115 2.03848 10.0443C1.85858 10.1056 1.68043 10.1703 1.50927 10.235C1.49704 11.0364 1.47434 13.129 1.45513 15.2496C1.56865 15.2811 1.74331 15.3335 1.93543 15.393C2.34238 15.5155 2.88557 15.68 3.06896 15.7097C3.06896 15.7027 3.06896 15.6957 3.0707 15.6887C3.08118 15.5907 3.08991 15.491 3.0445 15.4105C2.71615 15.323 2.42098 15.1708 2.15899 15.0361Z" fill="#39B54A"/>
<path d="M2.44704 8.25444C2.38242 8.34192 2.38067 8.44865 2.37893 8.56413C2.37893 8.61837 2.37893 8.67436 2.36845 8.7286C2.36845 8.7286 2.3667 8.73035 2.3667 8.7321C2.50293 9.222 2.61995 9.7364 2.73348 10.2351C2.9029 10.9822 3.0793 11.752 3.32731 12.4641C4.54118 12.1019 5.84237 11.9165 7.2012 11.9147L7.20295 11.9147C7.20295 11.9147 7.21692 11.9147 7.22391 11.9147C7.23613 11.9147 7.2501 11.9147 7.26408 11.9147C7.27106 11.9147 7.27805 11.9147 7.28504 11.9147C7.28504 11.9147 7.29377 11.9147 7.29901 11.9147L7.30075 11.9147C8.65958 11.9165 9.96252 12.1019 11.1746 12.4641C11.4209 11.7538 11.5973 10.9822 11.7685 10.2351C11.882 9.7364 11.999 9.222 12.1353 8.7321C12.1353 8.7321 12.1335 8.73035 12.1335 8.7286C12.1248 8.67436 12.1248 8.61837 12.123 8.56413C12.123 8.44865 12.1195 8.34017 12.0549 8.25444C12.0532 8.25269 12.0549 8.24919 12.0532 8.24569C10.7275 7.4391 9.04034 6.99469 7.28504 6.98944C7.28504 6.98944 7.27106 6.98944 7.26408 6.98944C5.49131 6.98594 3.78491 7.43035 2.44704 8.24569C2.44704 8.24919 2.44704 8.25094 2.4453 8.25444L2.44704 8.25444ZM4.41542 10.9979C5.45289 11.1519 6.24233 11.1659 7.28504 11.1431C8.2928 11.1641 9.07177 11.1484 10.0865 10.9979C11.138 10.8422 11.517 9.25524 11.8471 8.61487C11.7161 9.15726 11.496 10.2281 11.2934 10.7564C11.1572 12.2647 9.43331 11.542 7.28504 11.5665C5.10532 11.5245 3.34652 12.2804 3.20854 10.7564C3.00594 10.2298 2.78588 9.15726 2.65488 8.61487C2.98498 9.25699 3.36574 10.8422 4.41542 10.9979Z" fill="#364258"/>
<path d="M3.07434 19.2684C3.07085 19.1687 3.0691 19.0672 3.07434 18.9657C3.07434 18.9657 3.07434 18.9639 3.07434 18.9622L3.07434 16.098C2.78266 16.07 2.48924 16.0123 2.23075 15.9318C2.21852 15.93 2.20629 15.93 2.19407 15.93C2.16263 17.2843 2.23249 18.6875 2.30061 20.0435C2.30934 20.2114 2.31807 20.3794 2.32506 20.5456C2.38095 20.5526 2.43684 20.5579 2.484 20.5456C2.57482 20.4407 2.65516 20.3252 2.73201 20.2132C2.82633 20.0785 2.92413 19.942 3.03766 19.8195C3.03766 19.8195 3.03766 19.816 3.03766 19.8143C3.08657 19.6393 3.08133 19.4486 3.07609 19.2666L3.07434 19.2684Z" fill="#364258"/>
<path d="M3.0549 19.8949C2.95709 20.0051 2.86977 20.1276 2.78593 20.2465C2.70559 20.362 2.62175 20.481 2.52744 20.5895L2.5222 20.5965L2.51347 20.6C2.44535 20.6227 2.37025 20.614 2.30388 20.6052L2.26196 20.6L2.26196 20.5755C2.25323 20.4005 2.24275 20.2238 2.23402 20.0488C2.1659 18.6824 2.09604 17.2686 2.12922 15.9039L2.12922 15.8777L2.15891 15.8759C2.17114 15.8759 2.18337 15.8742 2.19559 15.8742C2.21131 15.8742 2.22703 15.8742 2.24449 15.8794C2.50124 15.9581 2.78768 16.0141 3.07237 16.0421C3.07237 16.0124 3.07237 15.9826 3.07237 15.9529C3.07237 15.8882 3.07411 15.8252 3.06538 15.7639C2.8785 15.7359 2.34929 15.575 1.91614 15.4437C1.731 15.3878 1.56508 15.337 1.4533 15.3055C1.43234 17.4576 1.39217 19.5222 1.38868 20.3918C1.38868 20.411 1.40265 20.5335 1.38868 20.5457C1.44282 20.6735 1.47426 20.8134 1.50395 20.9482C1.53888 21.1144 1.57731 21.2876 1.65939 21.4381C1.66987 21.4468 1.6821 21.4573 1.69258 21.4661C1.70481 21.4783 1.71878 21.4888 1.73275 21.501C1.82706 21.5448 1.92487 21.5168 2.02617 21.487C2.06285 21.4765 2.09953 21.4661 2.13621 21.4591C2.13621 21.4591 2.14843 21.4573 2.16415 21.4538C2.1921 21.4398 2.20956 21.4293 2.21131 21.4293C2.21655 21.4328 2.2183 21.4381 2.22004 21.4416L2.26371 21.4416C2.27768 21.4416 2.28816 21.4381 2.28816 21.4381C2.4698 21.0514 2.71781 20.6455 3.02696 20.2325C3.02696 20.2325 3.02696 20.229 3.02696 20.2273C3.02696 20.2238 3.02521 20.222 3.02696 20.2185C3.06538 20.1118 3.07586 19.9981 3.0584 19.8931L3.0549 19.8949Z" fill="#39B54A"/>
<path d="M3.02333 14.1314C2.95347 12.9504 2.63734 11.7817 2.33169 10.6531C2.27231 10.4362 2.21467 10.2192 2.15703 10.0023C2.13957 10.0075 2.1221 10.0145 2.10464 10.0198C2.10987 10.4939 2.10813 10.9821 2.10464 11.4545C2.09765 12.6285 2.09241 13.841 2.20594 14.9905C2.4557 15.12 2.73689 15.26 3.04429 15.3457C3.06699 15.1725 3.05127 14.9275 3.03556 14.6896C3.02158 14.4796 3.00761 14.2802 3.01984 14.1349C3.01984 14.1349 3.01984 14.1332 3.02158 14.1314L3.02333 14.1314Z" fill="#364258"/>
<path d="M3.82002 7.04005C3.41306 7.18702 2.95372 7.37074 2.67427 7.68917C2.67427 7.68917 2.67252 7.68917 2.67077 7.68917C2.64458 7.75566 2.60964 7.81865 2.57471 7.87988C2.51707 7.97961 2.46642 8.07585 2.45071 8.18433C3.77286 7.38823 5.44782 6.94907 7.18914 6.93857L7.23805 6.93857C7.23805 6.93857 7.24329 6.93857 7.24503 6.93857L7.27997 6.93857C7.27997 6.93857 7.28171 6.93857 7.28346 6.93857L7.30966 6.93857C9.05099 6.94732 10.7259 7.38823 12.0481 8.18433C12.0324 8.07585 11.9817 7.97962 11.9241 7.87989C11.8892 7.81865 11.8542 7.75566 11.828 7.68917C11.828 7.68917 11.8263 7.68917 11.8245 7.68917C11.5451 7.37074 11.0857 7.18702 10.6788 7.04005C10.3347 6.91583 9.97317 6.81435 9.60465 6.73561C8.87633 6.58164 8.09387 6.50291 7.28171 6.50466C7.28171 6.50466 7.26774 6.50466 7.26075 6.50466C6.43113 6.50116 5.63295 6.57989 4.89066 6.73736C4.52214 6.81609 4.1606 6.91758 3.81652 7.0418L3.82002 7.04005Z" fill="#389E0D"/>
<path d="M2.21309 26.5436C2.37377 26.7623 2.77723 26.9338 3.35185 27.0248L3.38154 27.03C3.35359 26.8061 3.32216 26.5734 3.28897 26.3319C3.18418 25.5708 3.07589 24.7852 3.08113 24.1239C3.08113 24.1221 3.08288 24.1204 3.08462 24.1186C3.08462 24.1186 3.08462 24.1186 3.08462 24.1169C3.11431 23.3663 3.2261 22.5999 3.33438 21.858C3.38154 21.5431 3.4287 21.2159 3.46887 20.8975C3.46538 20.8922 3.46188 20.8887 3.46188 20.8817C3.49856 20.1801 3.51079 19.5538 3.50031 18.9641C3.50031 18.9606 3.5038 18.9571 3.5038 18.9554C3.50904 16.8033 3.48983 15.2374 3.44442 14.1736C3.44442 14.1736 3.44442 14.1736 3.44442 14.1718C3.39027 13.5297 3.33438 12.9995 3.27151 12.5044C3.27151 12.5009 3.27325 12.4991 3.275 12.4956C3.02524 11.7783 2.84709 11.0014 2.67593 10.2473C2.5624 9.75044 2.44713 9.23779 2.30915 8.75138C2.09607 8.75663 1.91617 8.6709 1.74326 8.58517C1.66641 8.54667 1.59131 8.51343 1.51446 8.48369C1.51446 8.63766 1.50398 8.78987 1.49525 8.94035C1.48477 9.12231 1.47254 9.30952 1.47603 9.49324C1.65768 9.48799 1.85853 9.35676 1.9284 9.22554L1.93713 9.20979L1.95634 9.20979C1.97905 9.21329 2.00001 9.22379 2.01398 9.23079L2.02446 9.23604L2.02795 9.24654C2.09607 9.46349 2.15545 9.70145 2.20086 9.9324C2.2061 9.9359 2.21309 9.94115 2.21658 9.94815C2.22007 9.9569 2.21833 9.96564 2.21658 9.97264C2.27596 10.1948 2.33535 10.4188 2.39648 10.641C2.70387 11.7748 3.02 12.9471 3.08986 14.1351C3.08986 14.1386 3.09336 14.1403 3.09161 14.1421C3.07938 14.2838 3.09161 14.4798 3.10733 14.688C3.1248 14.9399 3.14051 15.1989 3.11432 15.3773C3.17195 15.4771 3.16147 15.5925 3.15099 15.6958C3.15099 15.708 3.14925 15.7203 3.1475 15.7343C3.16147 15.8077 3.15973 15.8812 3.15798 15.953C3.15798 15.9932 3.15798 16.0334 3.15798 16.0737L3.15798 18.9624C3.15798 18.9624 3.15623 18.9659 3.15623 18.9676C3.15099 19.0656 3.15274 19.1688 3.15623 19.2668C3.16147 19.4558 3.16671 19.65 3.11606 19.8337C3.11606 19.8337 3.11606 19.8337 3.11432 19.8354C3.14575 19.9614 3.13877 20.1084 3.08986 20.2396C3.08986 20.2694 3.08637 20.3026 3.08462 20.3376C3.07589 20.5038 3.05668 20.6718 3.03048 20.838C2.85757 22.145 2.37377 24.6435 2.37028 24.647C2.36853 24.647 2.77548 21.048 2.27422 21.4819L2.22531 21.4819C2.22531 21.4836 2.21658 21.4871 2.20959 21.4906C2.19038 21.5011 2.16244 21.5151 2.15196 21.5116C2.11702 21.5186 2.08209 21.5274 2.04716 21.5379C1.93713 21.5694 1.82185 21.6043 1.70309 21.5466L1.69785 21.5431C1.68213 21.5309 1.66816 21.5186 1.65418 21.5046C1.64196 21.4941 1.63148 21.4836 1.61925 21.4731L1.61227 21.4644C1.52494 21.3052 1.48651 21.1267 1.44983 20.9552C1.42888 20.8607 1.40792 20.7663 1.37823 20.6735C1.36425 20.6403 1.35377 20.621 1.34155 20.6105C1.30312 21.4276 1.28391 22.5719 1.34853 23.5447C1.37648 23.8964 1.40966 24.2096 1.44285 24.4388C1.44809 24.4773 1.45508 24.5158 1.46031 24.5525C1.46381 24.5578 1.46905 24.5613 1.47079 24.5683C1.53367 24.8412 1.57733 25.1264 1.61925 25.4011C1.63672 25.5218 1.65593 25.6426 1.67689 25.765C1.71531 25.821 1.74675 25.8683 1.77644 25.9137C1.88473 26.0765 1.96333 26.1937 2.21832 26.5419L2.21309 26.5436Z" fill="#39B54A"/>
<path d="M3.11953 27.7875L3.13875 27.7892L3.15796 27.7927L3.11604 27.7805L3.11953 27.7875Z" fill="#39B54A"/>
<path d="M2.70039 27.555C2.85409 27.6617 3.01128 27.7457 3.15799 27.7929C3.18245 27.7982 3.20515 27.8034 3.22611 27.8087L3.23659 27.7982L3.57368 27.8979C4.34741 27.9731 5.0897 28.0151 5.83024 28.0361C6.28959 28.0484 6.7437 28.0554 7.19257 28.0571L7.30959 28.0571C7.75845 28.0554 8.21256 28.0501 8.67191 28.0361C9.41071 28.0151 10.1547 27.9731 10.9285 27.8979L11.2656 27.7982L11.2743 27.8087C11.2953 27.8034 11.3197 27.7982 11.3442 27.7929C11.4909 27.7474 11.6481 27.6635 11.8018 27.555C11.5695 27.6792 11.3022 27.7562 11.0123 27.7247C10.1058 27.7579 8.66842 27.7789 7.28513 27.7842C5.88089 27.7789 4.41203 27.7579 3.48984 27.7247C3.19991 27.7562 2.93443 27.6792 2.70039 27.555Z" fill="#39B54A"/>
<path d="M1.43052 9.60345C1.29953 9.70318 1.14059 9.78891 0.985148 9.87114C0.618369 10.0654 0.272548 10.2508 0.258575 10.6147L0.356384 10.5728C0.581691 10.4765 0.922272 10.3313 1.29778 10.1843L1.35367 10.1773C1.35367 10.1773 1.37114 10.1703 1.37813 10.1668C1.3921 10.1563 1.40782 10.1511 1.42703 10.1511C1.42703 10.1511 2.12915 9.92888 2.12915 9.87289C2.12391 9.8484 2.11867 9.82565 2.11343 9.80116C2.09073 9.71192 2.06103 9.58245 2.02785 9.45298C2.01038 9.38999 1.99466 9.327 1.97545 9.26751C1.97196 9.26751 1.97021 9.26576 1.96672 9.26401C1.87939 9.40573 1.6698 9.53696 1.47593 9.54221L1.47593 9.56845L1.42878 9.60519L1.43052 9.60345Z" fill="#39B54A"/>
<path d="M3.06357 2.65918C3.19805 2.5507 3.33778 2.44047 3.47925 2.33724C3.37096 2.41073 3.26617 2.48946 3.16312 2.5717C3.12993 2.59969 3.09675 2.62944 3.06357 2.65918Z" fill="#39B54A"/>
<path d="M1.36249 4.19879L1.36249 4.20929C1.37646 4.65545 1.36074 5.11911 1.34503 5.56702C1.31184 6.50484 1.27691 7.4759 1.52318 8.37172L1.53715 8.42246L1.53016 8.43121C1.61225 8.46095 1.69259 8.50119 1.77119 8.53969C1.93537 8.62017 2.10478 8.7024 2.3004 8.70066C2.30564 8.65691 2.30738 8.61317 2.30738 8.56593C2.30913 8.44696 2.31088 8.32273 2.38773 8.22125C2.38773 8.22125 2.39122 8.2195 2.39297 8.21775C2.4017 8.08478 2.46458 7.9728 2.52571 7.86257C2.56064 7.80308 2.59557 7.74009 2.62002 7.67536C2.62002 7.67011 2.62002 7.66311 2.62526 7.65786C2.91519 7.32893 3.38152 7.14171 3.79721 6.99124C4.14477 6.86702 4.50806 6.76379 4.88008 6.68505C5.61538 6.52933 6.40309 6.4506 7.22223 6.4506C7.2362 6.4506 7.25017 6.4506 7.26415 6.4506L7.2851 6.4506C8.1025 6.4506 8.88845 6.52933 9.62201 6.68505C9.99403 6.76379 10.3573 6.86702 10.7049 6.99124C11.1206 7.14171 11.5869 7.32893 11.8768 7.65786C11.8821 7.66311 11.8821 7.66836 11.8821 7.67536C11.9065 7.7401 11.9415 7.80308 11.9764 7.86257C12.0375 7.97105 12.1004 8.08478 12.1091 8.21775C12.1109 8.21775 12.1126 8.2195 12.1144 8.22125C12.1912 8.32448 12.193 8.44696 12.1947 8.56593C12.1947 8.61317 12.1965 8.65691 12.2017 8.70066C12.3973 8.70241 12.5667 8.62017 12.7309 8.53969C12.8095 8.5012 12.8881 8.4627 12.9719 8.43121L12.9649 8.42246L12.9789 8.37172C13.2252 7.4759 13.1902 6.50484 13.1571 5.56702C13.1413 5.11911 13.1256 4.6572 13.1396 4.20929L13.1396 4.19879L13.1396 4.19179C13.1413 4.1708 13.1413 4.1498 13.1431 4.12881C13.0034 3.9276 12.9108 3.69839 12.8235 3.47269C12.7711 3.33796 12.7169 3.19799 12.6523 3.06677C12.6279 3.05277 12.5982 3.05102 12.5702 3.04927C12.5632 3.08601 12.5562 3.12276 12.551 3.1595C12.5353 3.26273 12.5196 3.37121 12.4637 3.46569L12.4584 3.47094C12.4462 3.48144 12.4357 3.49193 12.4235 3.50593L12.4183 3.51118L12.4095 3.51118C12.3676 3.52051 12.2879 3.48844 12.1703 3.41495C12.1703 3.41495 12.165 3.41495 12.1615 3.41495C12.1598 3.41495 12.158 3.41495 12.1545 3.41495C12.151 3.41495 12.3571 3.62316 12.1406 3.4062C11.5555 2.81657 10.9808 2.22168 10.2473 1.92249C10.2438 1.92249 10.242 1.92424 10.2386 1.92249C9.27619 1.74053 8.28065 1.6478 7.28336 1.6478C7.28336 1.6478 7.26764 1.6478 7.2624 1.6478C6.24764 1.64605 5.23813 1.73878 4.26005 1.92424C4.25656 1.92424 4.25481 1.92424 4.25132 1.92424C3.51776 2.22343 2.94314 2.82007 2.35804 3.40795C2.14146 3.62491 2.34756 3.41495 2.34406 3.4167C2.34232 3.4167 2.34057 3.4167 2.33708 3.4167C2.33358 3.4167 2.33184 3.4167 2.32834 3.4167C2.21074 3.49135 2.13098 3.52401 2.08906 3.51468L2.08033 3.51468L2.07509 3.50768C2.06287 3.49368 2.05239 3.48318 2.04016 3.47269L2.03492 3.46744C1.97728 3.37296 1.96331 3.26623 1.94759 3.16125C1.94235 3.1245 1.93537 3.08776 1.92838 3.05102C1.89869 3.05102 1.869 3.05627 1.84629 3.06852C1.78167 3.19974 1.72752 3.33971 1.67513 3.47444C1.5878 3.70014 1.49523 3.92935 1.35551 4.13056C1.35551 4.15155 1.35551 4.17255 1.359 4.19354L1.359 4.20054L1.36249 4.19879ZM12.3414 5.08237C12.3956 5.83297 12.448 6.54333 12.2785 7.20995C12.2593 7.28519 12.1772 7.33418 12.0934 7.31668C12.0096 7.29918 11.9572 7.22395 11.9764 7.14871L12.0305 5.10162C12.0008 4.69745 11.9711 4.27928 11.9711 3.83661C11.9711 3.39395 12.31 4.68345 12.3397 5.08237L12.3414 5.08237ZM2.16067 5.08237C2.19036 4.68345 2.5292 3.3887 2.5292 3.83661C2.5292 4.28453 2.49951 4.69745 2.46982 5.10162L2.52396 7.14871C2.54317 7.22395 2.49077 7.29918 2.40694 7.31668C2.3231 7.33418 2.24102 7.28693 2.2218 7.20995C2.05413 6.54333 2.10478 5.83297 2.15893 5.08237L2.16067 5.08237Z" fill="#39B54A"/>
<path d="M4.39282 1.36774C4.39282 1.36774 4.38758 1.35199 4.38234 1.34324C4.28978 1.31875 4.20594 1.36074 4.11687 1.40448C4.0505 1.43772 3.98063 1.46922 3.90553 1.47622C3.90029 1.47972 3.89505 1.48146 3.88806 1.48146C3.71166 1.60569 3.5143 1.72642 3.32567 1.84014C2.79471 2.16033 2.24804 2.49276 1.97907 3.02466C1.9878 3.06665 1.99478 3.10864 2.00002 3.15063C2.014 3.25036 2.02972 3.35184 2.08037 3.43758C2.09085 3.44808 2.10133 3.45857 2.11006 3.46907C2.13975 3.47257 2.16071 3.45332 2.1904 3.42358C2.20787 3.40608 2.5956 3.03866 3.06194 2.65723C3.09512 2.62749 3.12831 2.59949 3.16149 2.56975C3.44618 2.32305 3.7431 2.10959 4.07495 1.95037C4.12734 1.92238 4.17974 1.89788 4.22865 1.87863C4.22865 1.87863 4.22864 1.87689 4.23039 1.87514C4.24262 1.77891 4.27755 1.68792 4.31423 1.60044C4.34566 1.52346 4.3771 1.44472 4.39108 1.36424L4.39282 1.36774ZM2.81742 2.68698C2.64276 2.83745 2.48208 3.0474 2.28646 3.17163C2.22358 3.13489 2.22359 3.07015 2.269 3.01416L2.25153 3.02991C2.39126 2.78496 2.65149 2.55225 2.88553 2.37904C3.06718 2.24606 3.39379 1.97137 3.63656 1.97312C3.45317 2.24956 3.07591 2.46477 2.81567 2.68698L2.81742 2.68698Z" fill="#D7DEEB"/>
<path d="M0.258604 10.6635L0.379117 10.6128C0.583466 10.5253 1.15285 10.2629 1.3572 10.1789L1.3013 10.1859C0.925793 10.3328 0.585212 10.4781 0.359905 10.5743L0.262097 10.6163C0.27607 10.2524 0.62189 10.0687 0.988669 9.87269C1.14411 9.79046 1.30305 9.70472 1.43404 9.60499L1.4812 9.56825L1.4812 9.542C1.4812 9.542 1.47247 9.542 1.46723 9.542C1.45675 9.5595 1.43754 9.57 1.41483 9.57175C1.41483 9.57175 1.40785 9.57175 1.40435 9.57175C1.27685 9.66973 1.11966 9.75371 0.965964 9.83595C0.590452 10.0354 0.202714 10.2436 0.214939 10.66C0.227165 10.6635 0.237646 10.6635 0.251619 10.6653C0.255112 10.6653 0.258604 10.6653 0.262097 10.6653L0.258604 10.6635Z" fill="#1A1F29"/>
<path d="M1.42896 10.1527C1.40974 10.1527 1.39402 10.1597 1.38005 10.1685C1.40625 10.158 1.42372 10.1527 1.42896 10.1527Z" fill="#1A1F29"/>
<path d="M1.35368 4.04643C1.32748 3.13136 1.91608 2.23379 3.10898 1.3747C4.35952 0.786821 5.87031 0.73433 7.19071 0.730831L7.24311 0.730831L7.26057 0.730831L7.31297 0.730831C8.63163 0.73433 10.1442 0.786821 11.3947 1.37471C12.5876 2.23379 13.1762 3.13136 13.15 4.04643C13.164 4.06742 13.1779 4.08667 13.1919 4.10767C13.2461 3.1576 12.6522 2.22679 11.4192 1.33971C10.1791 0.753578 8.70324 0.69059 7.28677 0.688841C7.28677 0.688841 7.2728 0.688841 7.26581 0.688841C5.83537 0.688841 4.33857 0.748329 3.08628 1.33971C1.8532 2.22679 1.25762 3.1576 1.31351 4.10766C1.32748 4.08667 1.3432 4.06742 1.35543 4.04643L1.35368 4.04643Z" fill="#1A1F29"/>
<path d="M1.51112 8.42244C1.51112 8.42244 1.52509 8.42594 1.53208 8.42944L1.53906 8.42069L1.52509 8.36995C1.27882 7.47413 1.31376 6.50307 1.34694 5.56526C1.36266 5.11735 1.37838 4.65544 1.36441 4.20753L1.36441 4.19703L1.36441 4.19003C1.36266 4.16903 1.36266 4.14804 1.36091 4.12704C1.34694 4.14629 1.33297 4.16728 1.31899 4.18653C1.31899 4.19003 1.31899 4.19353 1.31899 4.19703C1.33297 4.64494 1.31725 5.11035 1.30153 5.56001C1.26834 6.50307 1.23516 7.47763 1.48317 8.37695C1.49889 8.3857 1.51112 8.3997 1.51286 8.41894L1.51112 8.42244Z" fill="#1A1F29"/>
<path d="M1.5144 8.4819C1.5144 8.4819 1.51266 8.4819 1.51091 8.4819C1.51091 8.63587 1.50218 8.78984 1.4917 8.93856C1.48122 9.12053 1.46899 9.30774 1.47249 9.49146C1.47249 9.49146 1.47423 9.49146 1.47598 9.49146C1.47249 9.30599 1.48297 9.11878 1.49519 8.93856C1.50392 8.78984 1.51266 8.63587 1.5144 8.4819Z" fill="#1A1F29"/>
<path d="M2.40875 7.31481C2.49258 7.29731 2.54498 7.22208 2.52577 7.14684L2.47162 5.09974C2.50132 4.69557 2.53101 4.27741 2.53101 3.83474C2.53101 3.39208 2.19217 4.68158 2.16248 5.0805C2.10834 5.8311 2.05594 6.54146 2.22536 7.20808C2.24457 7.28331 2.32666 7.33231 2.41049 7.31481L2.40875 7.31481Z" fill="#73D13D"/>
<path d="M3.35543 27.6057C3.29256 27.4168 3.29081 27.226 3.27684 27.1403C3.02533 27.0966 2.7354 27.0266 2.49612 26.9128C2.52057 27.0528 2.55201 27.191 2.59044 27.3293C2.814 27.492 3.07249 27.6057 3.35718 27.6057L3.35543 27.6057Z" fill="#F5222D"/>
<path d="M2.58862 27.3293C2.5502 27.1911 2.51876 27.0529 2.49431 26.9129C2.33013 26.8342 2.18691 26.7362 2.09609 26.6137C1.90572 26.353 1.81315 26.22 1.7328 26.1028C1.75202 26.192 1.77123 26.2813 1.79393 26.3705C1.82363 26.4352 1.79393 26.3792 1.83236 26.451C1.96335 26.6889 2.23058 27.0721 2.58688 27.3311L2.58862 27.3293Z" fill="#FAAD14"/>
<path d="M1.43945 25.8313C1.43421 25.7963 1.42723 25.7613 1.42199 25.7263C1.42548 25.7596 1.43072 25.7946 1.43945 25.8313Z" fill="#1A1F29"/>
<path d="M0.00190317 10.6917C0.00190317 10.6917 0.0735117 10.8912 0.258648 10.8492C0.311045 10.8369 0.466489 10.7862 0.466489 10.7862C0.653372 10.7075 0.918851 10.5937 1.21751 10.473C1.19132 12.4274 1.13193 18.6037 1.12495 20.4041C1.05683 21.6358 1.01491 23.2647 1.20005 24.36C1.19481 24.3828 1.22275 24.5945 1.22799 24.6172C1.28912 24.8814 1.33279 25.1631 1.37296 25.4343C1.38868 25.5305 1.40265 25.6285 1.41837 25.7265C1.42361 25.7615 1.43059 25.7965 1.43583 25.8315C1.48823 26.1412 1.55285 26.4509 1.65765 26.7466C1.66638 26.7728 1.6821 26.7955 1.70481 26.8148C2.12922 27.8383 3.2872 28.0501 3.31339 28.0413C3.90024 28.1708 5.97516 28.2845 7.17331 28.2915L7.21697 28.2915L7.24142 28.2915L7.28509 28.2915L7.32875 28.2915C8.5269 28.2863 10.6018 28.1708 11.1852 28.0431C11.2114 28.0518 12.3711 27.8401 12.7955 26.8165C12.8165 26.7973 12.8322 26.7746 12.8427 26.7483C12.9475 26.4509 13.0121 26.1412 13.0645 25.8332C13.0697 25.7982 13.0767 25.7633 13.0819 25.7283C13.0977 25.6303 13.1134 25.5323 13.1274 25.4361C13.1693 25.1649 13.2112 24.8832 13.2723 24.619C13.2776 24.5962 13.3055 24.3845 13.3003 24.3618C13.4854 23.2665 13.4435 21.6376 13.3754 20.4058C13.3684 18.6054 13.309 12.4291 13.2828 10.4748C13.5815 10.5937 13.8487 10.7075 14.0338 10.788C14.0338 10.788 14.1893 10.8387 14.2417 10.8509C14.4268 10.8929 14.4984 10.6935 14.4984 10.6935C14.5333 10.1441 14.0618 9.89388 13.6461 9.67167C13.5151 9.60169 13.3893 9.5352 13.2828 9.46172C13.2828 9.2815 13.2741 9.10129 13.2618 8.92807C13.2514 8.76535 13.2409 8.59739 13.2426 8.43467C13.2426 8.42067 13.2426 8.40842 13.2374 8.39443C13.4819 7.47761 13.447 6.50305 13.4138 5.56174C13.3981 5.11557 13.3824 4.65367 13.3963 4.21275L13.3963 4.2075C13.4959 3.16121 12.8741 2.14641 11.545 1.1911L11.517 1.17535C10.2211 0.561222 8.67711 0.505233 7.32875 0.499984L7.17156 0.499984C5.82321 0.503482 4.27925 0.561221 2.9833 1.17535L2.95535 1.1911C1.62621 2.14641 1.00269 3.16121 1.10399 4.2075L1.10399 4.21275C1.11796 4.65366 1.10224 5.11557 1.08652 5.56173C1.05334 6.5048 1.0184 7.47761 1.26292 8.39443C1.25943 8.40842 1.25769 8.42067 1.25769 8.43467C1.25769 8.59739 1.24721 8.76535 1.23847 8.92807C1.22799 9.10304 1.21751 9.2815 1.21751 9.46171C1.11272 9.5352 0.986968 9.60169 0.854228 9.67167C0.438545 9.89388 -0.0347741 10.1441 0.00190317 10.6935L0.00190317 10.6917ZM3.03569 14.6914C3.05141 14.9294 3.06713 15.1743 3.04442 15.3476C2.73528 15.2618 2.45408 15.1201 2.20607 14.9924C2.0908 13.8429 2.09778 12.6303 2.10477 11.4563C2.10652 10.9839 2.11001 10.4958 2.10477 10.0216C2.12224 10.0164 2.1397 10.0094 2.15717 10.0041C2.2148 10.2211 2.27244 10.438 2.33182 10.655C2.63747 11.7853 2.9536 12.9523 3.02346 14.1333C3.02346 14.1333 3.02346 14.135 3.02172 14.1368C3.00949 14.2838 3.02172 14.4815 3.03744 14.6914L3.03569 14.6914ZM3.02346 20.2308C3.02346 20.2308 3.02346 20.2343 3.02346 20.2361C2.71432 20.6508 2.46631 21.0549 2.28467 21.4416C2.28467 21.4416 2.27419 21.4416 2.26021 21.4451C2.23227 21.4486 2.1886 21.4539 2.16066 21.4574C2.14494 21.4591 2.13271 21.4609 2.13271 21.4626C2.09604 21.4696 2.05936 21.4801 2.02268 21.4906C1.92138 21.5203 1.82532 21.5483 1.72926 21.5046C1.71529 21.4941 1.70306 21.4818 1.68909 21.4696C1.67861 21.4608 1.66813 21.4504 1.6559 21.4416C1.57381 21.2911 1.53713 21.1179 1.50046 20.9517C1.47076 20.817 1.43933 20.677 1.38518 20.5493C1.39916 20.537 1.38518 20.4146 1.38518 20.3953C1.38868 19.5257 1.42885 17.4611 1.44981 15.3091C1.56159 15.3406 1.72926 15.3913 1.91265 15.4473C2.3458 15.5785 2.87675 15.7377 3.06189 15.7675C3.07062 15.8287 3.07062 15.8899 3.06888 15.9564C3.06888 15.9862 3.06888 16.0159 3.06888 16.0457C2.78419 16.0177 2.49775 15.9617 2.241 15.8829C2.22179 15.8795 2.20607 15.8777 2.1921 15.8777C2.17987 15.8777 2.16765 15.8777 2.15542 15.8794L2.12748 15.8794L2.12748 15.9074C2.09429 17.2722 2.16415 18.6859 2.23227 20.0524C2.241 20.2291 2.24973 20.4041 2.25847 20.579L2.25847 20.6035L2.30213 20.6088C2.3685 20.6175 2.4436 20.6263 2.51172 20.6035L2.52045 20.6L2.52569 20.593C2.62001 20.4828 2.70384 20.3638 2.78419 20.2501C2.86802 20.1311 2.9536 20.0086 3.05316 19.8984C3.07062 20.0034 3.06189 20.1189 3.02172 20.2238C3.02172 20.2273 3.02172 20.2291 3.02172 20.2326L3.02346 20.2308ZM3.03569 19.8179C3.03569 19.8179 3.03569 19.8214 3.03569 19.8232C2.92042 19.9456 2.82261 20.0821 2.73004 20.2168C2.65319 20.3288 2.57285 20.4426 2.48203 20.5493C2.43312 20.5633 2.37723 20.5563 2.32309 20.5493C2.31436 20.3813 2.30737 20.2151 2.29864 20.0471C2.23052 18.6911 2.16066 17.2879 2.1921 15.9337C2.20432 15.9337 2.2148 15.9337 2.22878 15.9354C2.48727 16.0159 2.78069 16.0719 3.07237 16.1017L3.07237 18.9658C3.07237 18.9658 3.07237 18.9676 3.07237 18.9693C3.06713 19.0691 3.06888 19.1723 3.07237 19.272C3.07761 19.4557 3.08285 19.6447 3.03394 19.8197L3.03569 19.8179ZM3.06888 15.6887C3.06888 15.6887 3.06888 15.7027 3.06713 15.7097C2.88374 15.68 2.33881 15.5155 1.93361 15.393C1.73974 15.3353 1.56683 15.2811 1.4533 15.2496C1.47426 13.129 1.49522 11.0347 1.50744 10.2351C1.67861 10.1703 1.85676 10.1056 2.03665 10.0444C2.04189 10.5115 2.04015 10.9909 2.03665 11.4563C2.02967 12.6356 2.02443 13.8568 2.1397 15.0134L2.1397 15.0291L2.15717 15.0361C2.41741 15.1708 2.71258 15.3213 3.04268 15.4105C3.08809 15.491 3.07936 15.5908 3.06888 15.6887ZM13.0662 24.4423C13.061 24.4808 13.054 24.5192 13.0488 24.556C13.0453 24.5612 13.04 24.5647 13.0383 24.5717C12.9754 24.8447 12.9317 25.1299 12.8898 25.4046C12.8706 25.5253 12.8531 25.646 12.8322 25.7685C12.813 25.8805 12.792 25.9907 12.7693 26.1027C12.7501 26.1919 12.7309 26.2812 12.7082 26.3704C12.682 26.4684 12.6558 26.5646 12.6226 26.6573C12.6243 26.6521 12.6261 26.6503 12.6226 26.6591L12.7169 26.7326C12.5091 27.2452 11.9554 27.6581 11.4454 27.8156C11.4419 27.8156 11.1642 27.8681 11.159 27.8681C11.159 27.8681 11.1415 27.8716 11.1136 27.8751C11.0716 27.8821 11.0053 27.8943 10.9441 27.9048C10.8603 27.9206 10.7835 27.9346 10.7817 27.9346C10.7677 27.9346 10.7538 27.9363 10.7398 27.9381C9.71456 28.0378 8.63868 28.0815 7.28683 28.0833C7.28683 28.0833 7.27461 28.0833 7.26937 28.0833C5.89307 28.0833 4.80322 28.0396 3.76575 27.9381C3.75178 27.9381 3.73781 27.9363 3.72384 27.9346C3.72384 27.9346 3.64524 27.9206 3.56141 27.9048C3.49853 27.8943 3.43391 27.8821 3.39199 27.8751C3.36579 27.8698 3.34658 27.8681 3.34658 27.8681C3.34309 27.8681 3.06538 27.8138 3.06014 27.8156C2.55014 27.6581 1.99823 27.2452 1.78864 26.7326L1.88295 26.6591C1.87772 26.6486 1.87946 26.6521 1.88295 26.6573C1.84977 26.5628 1.82183 26.4666 1.79737 26.3704C1.77467 26.2829 1.75371 26.1937 1.73624 26.1027C1.71354 25.9925 1.69258 25.8805 1.67337 25.7685C1.65241 25.646 1.6332 25.5253 1.61573 25.4046C1.57381 25.1299 1.53015 24.8447 1.46727 24.5717C1.46727 24.5647 1.46029 24.5612 1.45679 24.556C1.44981 24.5192 1.44457 24.4808 1.43933 24.4423C1.39741 24.1746 1.36597 23.8719 1.34501 23.5482C1.28039 22.5754 1.2996 21.4311 1.33803 20.614C1.33803 20.6035 1.33803 20.5913 1.33803 20.5808C1.35025 20.6123 1.36248 20.6438 1.37296 20.677C1.40265 20.7697 1.42361 20.866 1.44457 20.9587C1.48124 21.1302 1.51967 21.3086 1.607 21.4678L1.61398 21.4766C1.62621 21.4871 1.63844 21.4976 1.64892 21.5081C1.66289 21.5203 1.67861 21.5343 1.69258 21.5466L1.69782 21.5501C1.81833 21.6078 1.93186 21.5746 2.04189 21.5413C2.07159 21.5326 2.16765 21.5098 2.20432 21.4941C2.21306 21.4906 2.2183 21.4888 2.22004 21.4853L2.26895 21.4853C2.77021 21.0514 2.36326 24.6522 2.36501 24.6505C2.3685 24.6487 2.85405 22.1485 3.02521 20.8415C3.05141 20.642 3.07062 20.4705 3.07935 20.3411C3.0811 20.3061 3.08285 20.2728 3.08459 20.2431C3.1335 20.1119 3.14048 19.9649 3.10905 19.8389C3.10905 19.8389 3.10905 19.8389 3.11079 19.8372C3.16144 19.6517 3.1562 19.4575 3.15096 19.2703C3.14747 19.1723 3.14572 19.0691 3.15096 18.9711C3.15096 18.9711 3.15271 18.9676 3.15271 18.9658L3.15271 16.0772C3.15271 16.0369 3.15271 15.9967 3.15271 15.9564C3.15446 15.8847 3.1562 15.8095 3.14223 15.7377C3.14223 15.7255 3.14398 15.7132 3.14573 15.6992C3.1562 15.596 3.16668 15.4805 3.10905 15.3808C3.13699 15.2006 3.11953 14.9434 3.10206 14.6914C3.08809 14.4832 3.07586 14.2873 3.08634 14.1455C3.08634 14.1438 3.08459 14.1403 3.08459 14.1385C3.01473 12.9505 2.6986 11.7783 2.39121 10.6445C2.33008 10.4205 2.27069 10.1983 2.21131 9.97611C2.2148 9.96737 2.21655 9.95862 2.21131 9.95162C2.20782 9.94462 2.20258 9.94112 2.19559 9.93587C2.15018 9.70492 2.0908 9.46696 2.02268 9.25001L2.01919 9.23951L2.00871 9.23426C1.99474 9.22726 1.97378 9.21676 1.95107 9.21501L1.93186 9.21501L1.92313 9.22901C1.85327 9.36024 1.65066 9.49146 1.47077 9.49671C1.47077 9.49671 1.46902 9.49671 1.46727 9.49671C1.46378 9.31125 1.47426 9.12403 1.48649 8.94382C1.49522 8.7951 1.50395 8.64113 1.5057 8.48716C1.5057 8.48716 1.50744 8.48716 1.50919 8.48716C1.58604 8.51515 1.66114 8.55014 1.73799 8.58864C1.9109 8.67437 2.0908 8.7601 2.30388 8.75486C2.44011 9.24301 2.55713 9.75391 2.67066 10.2508C2.84182 11.0032 3.01997 11.7818 3.26973 12.4991C3.26973 12.5026 3.26624 12.5044 3.26624 12.5079C3.33086 13.003 3.385 13.5332 3.43915 14.1753L3.43915 14.177C3.48456 15.2408 3.50552 16.8068 3.49853 18.9588C3.49853 18.9623 3.49504 18.9641 3.49504 18.9676C3.50552 19.5572 3.49329 20.1836 3.45661 20.8852C3.45661 20.8905 3.46011 20.8957 3.4636 20.901C3.42343 21.2194 3.37627 21.5466 3.32911 21.8615C3.22083 22.6034 3.10905 23.368 3.07935 24.1203C3.07935 24.1203 3.07935 24.1203 3.07935 24.1221C3.07935 24.1238 3.07586 24.1256 3.07586 24.1273C3.07062 24.7887 3.17891 25.576 3.2837 26.3354C3.31689 26.5786 3.34832 26.8113 3.37627 27.0335C3.39024 27.1472 3.40421 27.2592 3.41469 27.3677C3.40596 27.3782 3.40247 27.3904 3.4112 27.4027L3.42343 27.4184C3.47058 27.5619 3.37103 27.7229 3.4863 27.7281C4.40849 27.7614 5.87735 27.7824 7.2816 27.7876C8.66488 27.7824 10.1023 27.7614 11.0088 27.7281C11.124 27.7246 11.0245 27.5619 11.0716 27.4184L11.0839 27.4027C11.0926 27.3922 11.0891 27.3782 11.0804 27.3677C11.0909 27.2592 11.1048 27.1472 11.1188 27.0335C11.1468 26.8095 11.1782 26.5768 11.2114 26.3354C11.3162 25.5743 11.4245 24.7887 11.4192 24.1273C11.4192 24.1256 11.4175 24.1238 11.4157 24.1221C11.4157 24.1221 11.4157 24.1221 11.4157 24.1203C11.386 23.3697 11.2743 22.6034 11.166 21.8615C11.1188 21.5466 11.0716 21.2194 11.0315 20.901C11.035 20.8957 11.0385 20.8922 11.0385 20.8852C11.0018 20.1836 10.9896 19.5572 11 18.9676C11 18.9641 10.9965 18.9606 10.9965 18.9588C10.9913 16.8068 11.0105 15.2408 11.0559 14.177C11.0559 14.177 11.0559 14.177 11.0559 14.1753C11.1101 13.5332 11.166 13.003 11.2288 12.5079C11.2288 12.5044 11.2271 12.5026 11.2253 12.4991C11.4751 11.7818 11.6533 11.0049 11.8244 10.2508C11.9379 9.75391 12.0532 9.24126 12.1912 8.75486C12.4043 8.7601 12.5842 8.67437 12.7571 8.58864C12.8339 8.55015 12.909 8.5169 12.9859 8.48716C12.9859 8.48716 12.9876 8.48716 12.9894 8.48716C12.9894 8.64113 12.9981 8.7951 13.0086 8.94382C13.0191 9.12578 13.0313 9.313 13.0278 9.49671C13.0278 9.49671 13.0261 9.49671 13.0243 9.49671C12.8427 9.49146 12.6418 9.36024 12.572 9.22901L12.5632 9.21327L12.544 9.21327C12.5213 9.21676 12.5003 9.22726 12.4864 9.23426L12.4759 9.23951L12.4724 9.25001C12.4043 9.46696 12.3449 9.70492 12.2995 9.93587C12.2942 9.93937 12.2873 9.94462 12.2838 9.95162C12.2803 9.96037 12.282 9.96912 12.2838 9.97611C12.2244 10.1983 12.165 10.4223 12.1039 10.6445C11.7965 11.7783 11.4803 12.9505 11.4105 14.1385C11.4105 14.142 11.407 14.1438 11.4087 14.1455C11.421 14.2873 11.4087 14.4832 11.393 14.6914C11.3756 14.9434 11.3598 15.2023 11.386 15.3808C11.3284 15.4805 11.3389 15.596 11.3494 15.6992C11.3494 15.7115 11.3511 15.7237 11.3528 15.7377C11.3389 15.8112 11.3406 15.8847 11.3424 15.9564C11.3424 15.9967 11.3441 16.0369 11.3424 16.0772L11.3424 18.9658C11.3424 18.9658 11.3441 18.9693 11.3441 18.9711C11.3494 19.0691 11.3476 19.1723 11.3441 19.2703C11.3389 19.4592 11.3336 19.6535 11.3843 19.8372C11.3843 19.8372 11.3843 19.8372 11.386 19.8389C11.3546 19.9649 11.3616 20.1119 11.4105 20.2431C11.4105 20.2728 11.414 20.3061 11.4157 20.3411C11.4245 20.4723 11.4437 20.6438 11.4699 20.8415C11.6428 22.1485 12.1266 24.647 12.1301 24.6505C12.1318 24.6505 11.7249 21.0514 12.2261 21.4853L12.275 21.4853C12.275 21.4871 12.2838 21.4906 12.2908 21.4941C12.3292 21.5098 12.4235 21.5326 12.4532 21.5413C12.5632 21.5728 12.6785 21.6078 12.7973 21.5501L12.8025 21.5466C12.8182 21.5343 12.8322 21.5221 12.8462 21.5081C12.8584 21.4976 12.8689 21.4871 12.8811 21.4766L12.8881 21.4678C12.9754 21.3086 13.0138 21.1302 13.0505 20.9587C13.0715 20.8642 13.0924 20.7697 13.1221 20.677C13.1326 20.6438 13.1431 20.6123 13.1571 20.5808C13.1571 20.5913 13.1571 20.6035 13.1571 20.614C13.1955 21.4311 13.2147 22.5754 13.1501 23.5482C13.1291 23.8719 13.0977 24.1746 13.0557 24.4423L13.0662 24.4423ZM7.26413 6.5048C7.26413 6.5048 7.2781 6.5048 7.28509 6.5048C8.09899 6.5048 8.87971 6.58178 9.60803 6.7375C9.97655 6.81624 10.3381 6.91772 10.6822 7.04194C11.0891 7.18891 11.5485 7.37263 11.8279 7.69107C11.8279 7.69107 11.8297 7.69107 11.8314 7.69107C11.8576 7.75755 11.8925 7.82054 11.9275 7.88178C11.9851 7.98151 12.0358 8.07774 12.0515 8.18622C10.7293 7.39012 9.05436 6.95096 7.31304 6.94046L7.28684 6.94046L7.28334 6.94046L7.24841 6.94046C7.24841 6.94046 7.24317 6.94046 7.24143 6.94046L7.19252 6.94046C5.45119 6.94921 3.77624 7.39012 2.45408 8.18622C2.4698 8.07774 2.52045 7.98151 2.57809 7.88178C2.61302 7.82054 2.64795 7.75755 2.67415 7.69107C2.67415 7.69107 2.6759 7.69107 2.67765 7.69107C2.9571 7.37263 3.41644 7.18891 3.82339 7.04194C4.16747 6.91772 4.52901 6.81624 4.89753 6.7375C5.63982 6.58003 6.43801 6.5013 7.26762 6.5048L7.26413 6.5048ZM7.26413 6.9912C7.26413 6.9912 7.2781 6.9912 7.28509 6.9912C9.04039 6.99645 10.7276 7.43912 12.0532 8.24746C12.0532 8.25096 12.0532 8.2527 12.055 8.2562C12.1196 8.34369 12.1213 8.45042 12.1231 8.56589C12.1231 8.62013 12.1231 8.67612 12.1336 8.73036C12.1336 8.73036 12.1353 8.73211 12.1353 8.73386C11.9991 9.22376 11.8803 9.73816 11.7685 10.2368C11.5991 10.9839 11.4227 11.7538 11.1747 12.4659C9.96083 12.1037 8.65964 11.9182 7.30081 11.9165L7.29906 11.9165C7.29906 11.9165 7.29033 11.9165 7.28509 11.9165C7.28509 11.9165 7.27112 11.9165 7.26413 11.9165C7.25016 11.9165 7.23793 11.9165 7.22396 11.9165C7.21697 11.9165 7.20999 11.9165 7.203 11.9165L7.20125 11.9165C5.84242 11.9182 4.53949 12.1037 3.32737 12.4659C3.0811 11.7555 2.9047 10.9839 2.73354 10.2368C2.62001 9.73816 2.50299 9.22376 2.36676 8.73386C2.36676 8.73386 2.3685 8.73211 2.3685 8.73036C2.37724 8.67612 2.37723 8.62013 2.37898 8.56589C2.37898 8.45042 2.38248 8.34194 2.4471 8.2562C2.44884 8.25445 2.4471 8.25095 2.44884 8.24746C3.78672 7.43212 5.49311 6.9877 7.26588 6.9912L7.26413 6.9912ZM10.9826 14.1718C10.9372 15.2373 10.918 16.8068 10.9232 18.9623C10.9127 19.5467 10.9249 20.1679 10.9599 20.8607C10.9599 20.9237 11.0105 21.2964 11.0734 21.795C11.1764 22.6069 11.3109 23.7581 11.3004 24.479C11.2952 24.8377 11.255 25.0931 11.1555 25.1421C9.8473 25.7335 8.91813 25.7493 7.48594 25.7458C7.41783 25.7458 7.35146 25.7458 7.28334 25.7458C7.19252 25.7458 7.10345 25.7458 7.01262 25.7458C5.58044 25.7493 4.65126 25.7335 3.34309 25.1421C3.24353 25.0914 3.20336 24.8377 3.19812 24.479C3.18764 23.7581 3.32213 22.6069 3.42517 21.795C3.48805 21.2964 3.54045 20.9237 3.5387 20.8607C3.57363 20.1679 3.58586 19.5467 3.57538 18.9623C3.58062 16.8068 3.56141 15.2373 3.516 14.1718C3.516 14.1718 3.516 14.1718 3.516 14.1683C3.46185 13.5332 3.40771 13.0083 3.34483 12.5184C4.57092 12.1527 5.88958 11.969 7.26238 11.9725C7.26937 11.9725 7.2781 11.9725 7.28509 11.9725C8.64217 11.9725 9.94511 12.1562 11.1572 12.5184C11.0944 13.0083 11.0402 13.5332 10.9861 14.1683C10.9861 14.1683 10.9861 14.1683 10.9861 14.1718L10.9826 14.1718ZM7.28509 27.6581C6.55677 27.6634 5.98913 27.6616 5.90181 27.6634C4.95342 27.6826 3.81116 27.6634 3.6138 27.4184C3.55791 27.3484 3.34483 25.9732 3.34483 25.3241C4.05743 25.7353 5.68174 25.9505 7.28509 25.9435C8.86573 25.9435 10.4551 25.73 11.1572 25.3241C11.1572 25.9732 10.9424 27.3502 10.8883 27.4184C10.6926 27.6634 9.55039 27.6826 8.60025 27.6634C8.51642 27.6616 7.98022 27.6634 7.28509 27.6581ZM12.4794 21.4888C12.4427 21.4783 12.406 21.4678 12.3693 21.4609C12.3693 21.4609 12.3571 21.4591 12.3414 21.4556C12.3135 21.4521 12.2698 21.4469 12.2418 21.4434C12.2279 21.4434 12.2174 21.4399 12.2174 21.4399C12.0358 21.0532 11.7877 20.6473 11.4786 20.2343C11.4786 20.2343 11.4786 20.2308 11.4786 20.2291C11.4786 20.2256 11.4786 20.2238 11.4786 20.2203C11.4402 20.1136 11.4297 19.9999 11.4472 19.8949C11.545 20.0051 11.6323 20.1276 11.7161 20.2466C11.7965 20.3621 11.8803 20.481 11.9746 20.5895L11.9799 20.5965L11.9886 20.6C12.0567 20.6228 12.1318 20.614 12.1982 20.6053L12.2401 20.6L12.2401 20.5755C12.2488 20.4006 12.2593 20.2238 12.268 20.0489C12.3362 18.6824 12.406 17.2687 12.3728 15.9039L12.3728 15.8777L12.3432 15.876C12.3309 15.876 12.3187 15.8742 12.3065 15.8742C12.2908 15.8742 12.275 15.8742 12.2576 15.8795C12.0008 15.9582 11.7144 16.0142 11.4297 16.0422C11.4297 16.0124 11.4297 15.9827 11.4297 15.9529C11.4297 15.8882 11.4297 15.8252 11.4367 15.764C11.6236 15.736 12.1528 15.575 12.5859 15.4438C12.7711 15.3878 12.937 15.3371 13.0488 15.3056C13.0697 17.4576 13.1099 19.5222 13.1134 20.3918C13.1134 20.4111 13.0994 20.5335 13.1134 20.5458C13.0592 20.6735 13.0278 20.8135 12.9981 20.9482C12.9614 21.1144 12.9248 21.2876 12.8427 21.4381C12.8322 21.4469 12.82 21.4574 12.8095 21.4661C12.7973 21.4783 12.7833 21.4888 12.7693 21.5011C12.6733 21.5448 12.5772 21.5168 12.4759 21.4871L12.4794 21.4888ZM11.4803 14.135C11.4803 14.135 11.4803 14.1333 11.4786 14.1315C11.5485 12.9505 11.8646 11.7818 12.1702 10.6532C12.2296 10.4363 12.2873 10.2193 12.3449 10.0024C12.3624 10.0076 12.3798 10.0146 12.3973 10.0199C12.3921 10.494 12.3938 10.9822 12.3973 11.4546C12.4043 12.6286 12.4095 13.8411 12.296 14.9906C12.0462 15.1201 11.765 15.2601 11.4576 15.3458C11.4349 15.1726 11.4507 14.9276 11.4664 14.6897C11.4803 14.4797 11.4943 14.2803 11.4821 14.135L11.4803 14.135ZM11.4594 15.4105C11.7877 15.3231 12.0829 15.1708 12.3449 15.0361L12.3606 15.0291L12.3606 15.0134C12.4794 13.8551 12.4724 12.6356 12.4654 11.4563C12.4637 10.9909 12.4602 10.5115 12.4654 10.0444C12.6453 10.1056 12.8235 10.1703 12.9946 10.2351C13.0068 11.0364 13.0296 13.129 13.0488 15.2496C12.9352 15.2811 12.7606 15.3336 12.5685 15.393C12.1633 15.5155 11.6183 15.68 11.4349 15.7097C11.4349 15.7027 11.4349 15.6957 11.4332 15.6887C11.4227 15.5908 11.414 15.491 11.4594 15.4105ZM11.4279 19.2703C11.4314 19.1706 11.4332 19.0691 11.4279 18.9676C11.4279 18.9676 11.4279 18.9658 11.4279 18.9641L11.4279 16.0999C11.7196 16.0719 12.013 16.0142 12.2715 15.9337C12.2838 15.9319 12.296 15.9319 12.3082 15.9319C12.3397 17.2862 12.2698 18.6894 12.2017 20.0454C12.1929 20.2133 12.1842 20.3813 12.1772 20.5475C12.1213 20.5545 12.0654 20.5598 12.0183 20.5475C11.9275 20.4426 11.8471 20.3271 11.7703 20.2151C11.676 20.0804 11.5782 19.9439 11.4646 19.8214C11.4646 19.8214 11.4646 19.8179 11.4646 19.8162C11.4157 19.6412 11.421 19.4505 11.4262 19.2685L11.4279 19.2703ZM13.5413 9.83264C13.9168 10.0321 14.3045 10.2403 14.2923 10.6567C14.2801 10.6602 14.2696 10.6602 14.2556 10.662C14.2521 10.662 14.2487 10.662 14.2452 10.662L14.1246 10.6112C13.9203 10.5238 13.3509 10.2613 13.1466 10.1773C13.1378 10.1738 13.1291 10.1703 13.1221 10.1668C13.0959 10.1563 13.0785 10.1511 13.0732 10.1511C13.0732 10.1511 12.3711 9.92887 12.3711 9.87289C12.3693 9.87289 12.3676 9.87289 12.3693 9.87289C12.3746 9.85539 12.3816 9.83089 12.3886 9.8029C12.4113 9.71367 12.441 9.58419 12.4741 9.45472C12.4916 9.38998 12.5091 9.32699 12.5265 9.26925C12.53 9.26925 12.5318 9.26751 12.5353 9.26576C12.6226 9.40748 12.8322 9.5387 13.0261 9.54395C13.0313 9.54395 13.0348 9.54395 13.0383 9.54395C13.0488 9.56145 13.068 9.57195 13.0907 9.57369C13.0907 9.57369 13.0977 9.57369 13.1012 9.57369C13.2287 9.67167 13.3859 9.75566 13.5395 9.83789L13.5413 9.83264ZM3.0846 1.33982C4.33688 0.748435 5.83369 0.690696 7.26413 0.688947C7.27112 0.688947 7.2781 0.688947 7.28509 0.688947C8.70156 0.690696 10.1774 0.753685 11.4175 1.33982C12.6505 2.22689 13.2461 3.15771 13.1902 4.10777C13.1763 4.08678 13.1605 4.06753 13.1483 4.04653C13.033 3.86282 12.951 3.65811 12.8724 3.4569C12.8182 3.31868 12.7641 3.17521 12.6977 3.04048L12.6942 3.03523L12.689 3.03173C12.6505 3.00549 12.6034 3.00199 12.5632 3.00024C12.2855 2.46135 11.7353 2.12716 11.2026 1.80523C11.0053 1.6845 10.8184 1.57077 10.6437 1.4483C10.6437 1.4483 10.6437 1.4483 10.6437 1.4448C10.5389 1.20159 10.2874 1.14561 10.0848 1.09837L10.0534 1.09137C9.31111 0.949644 8.56882 0.879659 7.75317 0.879659C7.59947 0.879659 7.44228 0.883159 7.28509 0.888408C7.28509 0.888408 7.27112 0.888408 7.26413 0.888408C7.08948 0.883159 6.91656 0.87791 6.74889 0.87791C5.93325 0.87791 5.19096 0.946145 4.44866 1.08962L4.41723 1.09662C4.21462 1.14211 3.96137 1.19985 3.85832 1.44305C3.85832 1.44305 3.85832 1.4448 3.85832 1.44655C3.68367 1.57077 3.49679 1.6845 3.29942 1.80348C2.76672 2.12541 2.21655 2.4596 1.93885 2.99849C1.89868 3.00024 1.85152 3.00374 1.81309 3.02998L1.80785 3.03348L1.80785 3.03873C1.73799 3.17346 1.68385 3.31518 1.62971 3.45515C1.55111 3.65636 1.47077 3.86282 1.35375 4.04478C1.33977 4.06578 1.3258 4.08503 1.31183 4.10602C1.25769 3.15596 1.85152 2.22514 3.0846 1.33807L3.0846 1.33982ZM12.31 3.42541C12.2925 3.40791 11.9048 3.04048 11.4384 2.65906C11.3039 2.55058 11.1642 2.44035 11.0227 2.33712C10.8149 2.1849 10.6088 2.04843 10.4254 1.95395C10.373 1.92595 10.3206 1.90146 10.2717 1.88221C10.2717 1.88221 10.2717 1.88046 10.27 1.87871C10.2577 1.78248 10.2228 1.6915 10.1879 1.60401C10.1564 1.52703 10.125 1.4483 10.111 1.36781C10.1145 1.35906 10.1163 1.35206 10.1215 1.34332C10.2141 1.31882 10.2979 1.36081 10.387 1.40456C10.4534 1.4378 10.5232 1.46929 10.5983 1.47629C10.6036 1.47979 10.6088 1.48154 10.6158 1.48154C10.7922 1.60577 10.9896 1.72649 11.1782 1.84022C11.7091 2.16041 12.2558 2.49284 12.5248 3.02473C12.5161 3.06673 12.5091 3.10872 12.5038 3.15071C12.4899 3.25044 12.4741 3.35192 12.4235 3.43765C12.413 3.44815 12.4025 3.45865 12.3921 3.46915C12.3624 3.47265 12.3414 3.4534 12.3117 3.42366L12.31 3.42541ZM7.26413 1.59177C7.25365 1.59177 7.24492 1.59177 7.23444 1.59177C6.2389 1.59177 5.24685 1.68275 4.28623 1.86296C4.30021 1.78073 4.3299 1.70375 4.36308 1.62151C4.39627 1.54103 4.42945 1.45705 4.44342 1.36956L4.44342 1.36431L4.44342 1.35907C4.43819 1.34507 4.43295 1.33107 4.42421 1.31357L4.41897 1.30482L4.41024 1.30133C4.3823 1.29258 4.35435 1.28908 4.32815 1.28908C4.24432 1.28908 4.16921 1.32582 4.09411 1.36256C4.04171 1.38881 3.99281 1.4133 3.94041 1.4238C4.04346 1.24534 4.24956 1.19635 4.43295 1.15435L4.46264 1.14736C5.33068 0.981137 6.20222 0.918151 7.18903 0.946145C7.19252 0.946145 7.19602 0.949643 7.20126 0.949643C7.22221 0.949643 7.24317 0.949643 7.26413 0.949643C7.27112 0.949643 7.2781 0.949643 7.28509 0.949643C7.28509 0.949643 7.29557 0.949643 7.30081 0.949643C7.30605 0.949643 7.3078 0.947896 7.31304 0.946145C8.29985 0.918151 9.17313 0.982889 10.0394 1.14736L10.0691 1.15435C10.2543 1.19635 10.4586 1.24359 10.5617 1.4238C10.511 1.41155 10.4604 1.38706 10.408 1.36256C10.3346 1.32582 10.2577 1.28908 10.1739 1.28908C10.1477 1.28908 10.1198 1.29258 10.0918 1.30133L10.0813 1.30482L10.0761 1.31357C10.0656 1.33107 10.0604 1.34507 10.0569 1.35907L10.0569 1.36431L10.0569 1.36956C10.0709 1.45705 10.1041 1.54103 10.1372 1.62151C10.1704 1.702 10.2001 1.78073 10.2141 1.86296C9.25871 1.6845 8.27365 1.59352 7.28334 1.59177C7.28334 1.59177 7.26937 1.59177 7.26239 1.59177L7.26413 1.59177ZM4.23034 1.88221C4.18144 1.90146 4.12904 1.92595 4.07665 1.95395C3.89151 2.05018 3.68541 2.18665 3.47932 2.33712C3.33959 2.44035 3.19812 2.55058 3.06364 2.65906C2.5973 3.03873 2.21131 3.40791 2.1921 3.42541C2.16241 3.45515 2.14145 3.47265 2.11176 3.4709C2.10128 3.4604 2.09254 3.4499 2.08207 3.4394C2.03142 3.35367 2.0157 3.25044 2.00172 3.15246C1.99648 3.11047 1.9895 3.06848 1.98076 3.02649C2.24974 2.49459 2.79816 2.16216 3.32737 1.84197C3.51774 1.72649 3.71336 1.60751 3.88976 1.48329C3.89675 1.48329 3.90199 1.48154 3.90723 1.47804C3.98233 1.47104 4.05219 1.43955 4.11856 1.4063C4.20764 1.36256 4.29147 1.32232 4.38404 1.34507C4.38753 1.35382 4.39103 1.36081 4.39452 1.36956C4.38055 1.45005 4.34911 1.53053 4.31767 1.60576C4.28274 1.69325 4.24606 1.78423 4.23384 1.88046C4.23384 1.88046 4.23209 1.88221 4.23209 1.88396L4.23034 1.88221ZM1.2996 5.56348C1.31532 5.11382 1.33279 4.64841 1.31707 4.2005C1.31707 4.197 1.31707 4.19351 1.31707 4.19001C1.33279 4.17076 1.34501 4.14976 1.35899 4.13052C1.49871 3.92931 1.59128 3.7001 1.67861 3.4744C1.73101 3.33967 1.78515 3.1997 1.84977 3.06847C1.87422 3.05448 1.90392 3.05273 1.93186 3.05098C1.93885 3.08772 1.94583 3.12446 1.95107 3.16121C1.96679 3.26444 1.98251 3.37292 2.0384 3.4674L2.04364 3.47265C2.05587 3.48314 2.06635 3.49364 2.07857 3.50764L2.08381 3.51289L2.09254 3.51289C2.13446 3.52222 2.21422 3.49014 2.33182 3.41666C2.33182 3.41666 2.33707 3.41666 2.34056 3.41666C2.3423 3.41666 2.34405 3.41666 2.34754 3.41666C2.35104 3.41666 2.14494 3.62487 2.36152 3.40791C2.94662 2.81828 3.52124 2.22339 4.2548 1.9242C4.25829 1.9242 4.26004 1.92595 4.26353 1.9242C5.24161 1.73874 6.25112 1.64601 7.26588 1.64776C7.27286 1.64776 7.27985 1.64776 7.28684 1.64776C8.28587 1.64776 9.27967 1.74049 10.242 1.92245C10.2455 1.92245 10.2473 1.92245 10.2508 1.92245C10.9843 2.22164 11.5589 2.81828 12.144 3.40616C12.3606 3.62312 12.1545 3.41316 12.158 3.41491C12.1598 3.41491 12.1615 3.41491 12.165 3.41491C12.1685 3.41491 12.1702 3.41491 12.1737 3.41491C12.2913 3.48956 12.3711 3.52222 12.413 3.51289L12.4217 3.51289L12.427 3.50589C12.4392 3.49189 12.4497 3.4814 12.4619 3.4709L12.4672 3.46565C12.5248 3.37117 12.5388 3.26444 12.5545 3.15946C12.5597 3.12272 12.5667 3.08597 12.5737 3.04923C12.6034 3.04923 12.6331 3.05448 12.6558 3.06673C12.7204 3.19795 12.7746 3.33792 12.827 3.47265C12.9143 3.69835 13.0068 3.92756 13.1466 4.12877C13.1605 4.14801 13.1745 4.16901 13.1885 4.18826C13.1885 4.19176 13.1885 4.19526 13.1885 4.19876C13.1745 4.64667 13.1902 5.11207 13.206 5.56174C13.2391 6.5048 13.2723 7.47936 13.0243 8.37868C13.0086 8.38743 12.9964 8.40143 12.9946 8.42067C12.9876 8.42242 12.9806 8.42417 12.9754 8.42767C12.8933 8.45741 12.813 8.49766 12.7344 8.53615C12.5702 8.61663 12.4008 8.69887 12.2052 8.69712C12.1999 8.65338 12.1982 8.60963 12.1982 8.56239C12.1964 8.44342 12.1947 8.31919 12.1178 8.21771C12.1178 8.21771 12.1144 8.21596 12.1126 8.21421C12.1039 8.08124 12.041 7.96926 11.9799 7.85903C11.9449 7.79955 11.91 7.73656 11.8856 7.67182C11.8856 7.66657 11.8855 7.65957 11.8803 7.65432C11.5904 7.32539 11.124 7.13817 10.7084 6.9877C10.3608 6.86348 9.99751 6.76025 9.62549 6.68151C8.89193 6.52579 8.10598 6.44706 7.28858 6.44706C7.28858 6.44706 7.27461 6.44706 7.26762 6.44706C7.25365 6.44706 7.23968 6.44706 7.22571 6.44706C6.40657 6.44706 5.61887 6.52579 4.88356 6.68151C4.51154 6.76025 4.14825 6.86348 3.80069 6.9877C3.385 7.13817 2.91867 7.32539 2.62874 7.65432C2.6235 7.65957 2.6235 7.66482 2.6235 7.67182C2.59905 7.73656 2.56412 7.79954 2.52919 7.85903C2.46806 7.96751 2.40518 8.08124 2.39645 8.21421C2.3947 8.21421 2.39295 8.21596 2.39121 8.21771C2.31436 8.32094 2.31261 8.44342 2.31087 8.56239C2.31087 8.60963 2.30912 8.65337 2.30388 8.69712C2.10826 8.69887 1.93885 8.61663 1.77467 8.53615C1.69607 8.49765 1.61748 8.45916 1.53364 8.42767C1.52666 8.42592 1.51967 8.42242 1.51268 8.42067C1.51094 8.40317 1.49871 8.38918 1.48299 8.37868C1.23498 7.47761 1.26816 6.5048 1.30135 5.56173L1.2996 5.56348ZM0.960769 9.83264C1.11447 9.75041 1.27166 9.66642 1.39916 9.56844C1.40265 9.56844 1.40614 9.56844 1.40964 9.56844C1.43234 9.56844 1.45155 9.5562 1.46203 9.5387C1.46727 9.5387 1.47077 9.5387 1.47601 9.5387C1.67162 9.53345 1.88121 9.40223 1.96679 9.26051C1.97029 9.26051 1.97203 9.26226 1.97552 9.264C1.99299 9.32174 2.01046 9.38473 2.02792 9.44947C2.06111 9.57894 2.0908 9.71017 2.1135 9.79765C2.12049 9.82564 2.12748 9.85014 2.13272 9.86763C2.13272 9.86939 2.13271 9.86763 2.13097 9.86763C2.13097 9.92362 1.42885 10.1458 1.42885 10.1458C1.42361 10.1458 1.40614 10.1511 1.37995 10.1616C1.37296 10.1651 1.36423 10.1686 1.35549 10.1721C1.15115 10.2561 0.583509 10.5185 0.377414 10.606L0.256902 10.6567C0.256902 10.6567 0.249915 10.6567 0.246422 10.6567C0.232449 10.6567 0.22197 10.6532 0.209744 10.6515C0.195772 10.2333 0.585257 10.0269 0.960769 9.82739L0.960769 9.83264Z" fill="#1A1F29"/>
<path d="M2.25165 3.02991L2.26912 3.01416C2.22371 3.0719 2.22371 3.13489 2.28658 3.17163C2.48045 3.04741 2.64114 2.83745 2.81754 2.68698C3.07778 2.46477 3.45504 2.24956 3.63843 1.97312C3.39565 1.97137 3.0673 2.24606 2.8874 2.37904C2.65336 2.55225 2.39313 2.78496 2.2534 3.02991L2.25165 3.02991Z" fill="white"/>
<path d="M7.28521 12.3591C5.67487 12.3731 4.33176 12.6355 3.91782 12.9907C4.82429 12.807 5.99624 12.6933 7.28521 12.681C8.54623 12.6985 9.69372 12.8105 10.5845 12.9907C10.1775 12.6408 8.86585 12.3818 7.28521 12.3608L7.28521 12.3591Z" fill="#73D13D"/>
<path d="M7.28513 11.5665C9.43341 11.5402 11.1573 12.2628 11.2935 10.7546C11.4961 10.228 11.7162 9.15544 11.8472 8.61305C11.5171 9.25517 11.1363 10.8404 10.0866 10.9961C9.07187 11.1466 8.2929 11.1623 7.28513 11.1431C6.24243 11.164 5.45298 11.1501 4.41552 10.9961C3.36409 10.8404 2.98508 9.25342 2.65498 8.61305C2.78597 9.15544 3.00604 10.2262 3.20864 10.7546C3.34662 12.2786 5.10542 11.5227 7.28513 11.5665Z" fill="#93A3C0"/>
</svg>
